<svg width="24" height="25" viewBox="0 0 24 25" fill="none" xmlns="http://www.w3.org/2000/svg">
<g clip-path="url(#clip0_0_1300)">
<rect opacity="0.01" y="0.599976" width="24" height="24" fill="white"/>
<path fill-rule="evenodd" clip-rule="evenodd" d="M12.8906 5.828C12.6072 6.1313 12.6082 6.6219 12.8928 6.9239L17.5121 11.8249H4.72726L4.62858 11.832C4.2736 11.8833 4 12.2075 4 12.5999C4 13.0279 4.32561 13.3748 4.72726 13.3748H17.5105L12.8928 18.2757L12.8222 18.3625C12.6104 18.6654 12.633 19.096 12.8907 19.3717C13.1741 19.6749 13.6346 19.676 13.9192 19.3739L19.7689 13.1662C19.903 13.0328 19.9897 12.8458 19.999 12.6373C20.0087 12.426 19.9376 12.2112 19.7857 12.0501L13.9191 5.8256L13.8374 5.7508C13.5522 5.5263 13.1483 5.5522 12.8906 5.828Z" fill="#181818"/>
</g>
<defs>
<clipPath id="clip0_0_1300">
<rect width="24" height="24" fill="white" transform="translate(0 0.599976)"/>
</clipPath>
</defs>
</svg>
