<svg width="65" height="73" viewBox="0 0 65 73" fill="none" xmlns="http://www.w3.org/2000/svg">
<g clip-path="url(#clip0_0_1311)" filter="url(#filter0_d_0_1311)">
<rect x="25" y="8" width="32" height="32" rx="16" fill="white"/>
<rect opacity="0.01" x="31" y="14" width="20" height="20" fill="white"/>
<path fill-rule="evenodd" clip-rule="evenodd" d="M40.3333 18.1798C41.3805 16.7845 43.3605 16.5021 44.7566 17.5491C46.152 18.5965 46.4334 20.5776 45.3864 21.9726L44.3648 23.3337C44.3484 23.366 44.3291 23.3973 44.3066 23.4272C44.2842 23.4571 44.2595 23.4845 44.2331 23.5092L43.109 25.0068C41.881 26.6429 40.4743 28.5169 39.7597 29.4685C38.9005 30.6137 37.6689 30.9788 36.7186 31.0707C36.24 31.1169 35.8144 31.0965 35.5086 31.0649C35.355 31.0489 35.2296 31.03 35.1405 31.0146C35.096 31.0069 35.0603 31 35.0346 30.9949L35.0036 30.9884L34.9939 30.9862L34.9905 30.9854L34.9892 30.9851C34.9889 30.9851 34.9881 30.9849 35.1282 30.3758L34.5856 30.6859L34.5846 30.6843L34.5829 30.6812L34.578 30.6724L34.5628 30.6446C34.5504 30.6214 34.5335 30.5894 34.5133 30.5489C34.4729 30.4683 34.4188 30.3539 34.3596 30.2117C34.2418 29.9284 34.1009 29.5274 34.0102 29.0557C33.8296 28.1169 33.8382 26.8333 34.7066 25.6757L40.3333 18.1798ZM34.5856 30.6859C34.6722 30.8372 34.8183 30.9459 34.9881 30.9849L35.1282 30.3758C34.5859 30.6864 34.5857 30.6862 34.5856 30.6859ZM43.6744 22.1712L44.3867 21.2223C45.0197 20.379 44.8492 19.1816 44.0063 18.549C43.1624 17.9161 41.9658 18.0871 41.3331 18.9301L40.6208 19.8791L43.6744 22.1712ZM39.8704 20.8788L42.924 23.1709L42.1093 24.2564C40.8813 25.8924 39.4744 27.7666 38.7599 28.7183C38.1907 29.477 37.3566 29.7532 36.5983 29.8265C36.2224 29.8629 35.8829 29.8469 35.6372 29.8214C35.6057 29.8182 35.5758 29.8148 35.5478 29.8114C35.5368 29.7864 35.5254 29.7598 35.5137 29.7316C35.4198 29.5057 35.3085 29.1877 35.2377 28.8196C35.0952 28.0789 35.1257 27.2 35.7065 26.4259L39.8704 20.8788ZM41.4877 30.2565C41.4877 29.9113 41.7675 29.6315 42.1127 29.6315H47.4269C47.772 29.6315 48.0519 29.9113 48.0519 30.2565C48.0519 30.6017 47.772 30.8815 47.4269 30.8815H42.1127C41.7675 30.8815 41.4877 30.6017 41.4877 30.2565Z" fill="#181818"/>
</g>
<defs>
<filter id="filter0_d_0_1311" x="0" y="-9" width="82" height="82" filterUnits="userSpaceOnUse" color-interpolation-filters="sRGB">
<feFlood flood-opacity="0" result="BackgroundImageFix"/>
<feColorMatrix in="SourceAlpha" type="matrix" values="0 0 0 0 0 0 0 0 0 0 0 0 0 0 0 0 0 0 127 0" result="hardAlpha"/>
<feOffset dy="8"/>
<feGaussianBlur stdDeviation="12.5"/>
<feColorMatrix type="matrix" values="0 0 0 0 0.12549 0 0 0 0 0.12549 0 0 0 0 0.12549 0 0 0 0.15 0"/>
<feBlend mode="normal" in2="BackgroundImageFix" result="effect1_dropShadow_0_1311"/>
<feBlend mode="normal" in="SourceGraphic" in2="effect1_dropShadow_0_1311" result="shape"/>
</filter>
<clipPath id="clip0_0_1311">
<rect width="32" height="32" fill="white" transform="translate(25 8)"/>
</clipPath>
</defs>
</svg>
