<svg width="16" height="17" viewBox="0 0 16 17" fill="none" xmlns="http://www.w3.org/2000/svg">
<path fill-rule="evenodd" clip-rule="evenodd" d="M9.38648 2.18753C9.38648 1.42121 8.76579 0.799988 8.00013 0.799988C7.23446 0.799988 6.61377 1.42121 6.61377 2.18753V7.41243H1.38636C0.620692 7.41243 0 8.03365 0 8.79997C0 9.56628 0.620692 10.1875 1.38636 10.1875H6.61377V15.4125C6.61377 16.1788 7.23446 16.8 8.00013 16.8C8.76579 16.8 9.38648 16.1788 9.38648 15.4125V10.1875H14.6136C15.3793 10.1875 16 9.56628 16 8.79997C16 8.03365 15.3793 7.41243 14.6136 7.41243H9.38648V2.18753Z" fill="#181818"/>
</svg>
