<svg width="24" height="25" viewBox="0 0 24 25" fill="none" xmlns="http://www.w3.org/2000/svg">
<rect opacity="0.01" y="0.799988" width="24" height="24" fill="white"/>
<path fill-rule="evenodd" clip-rule="evenodd" d="M3.05005 12.8368C3.05005 9.22737 3.66147 7.05949 4.96051 5.76044C6.25956 4.4614 8.42744 3.84998 12.0368 3.84998C15.6463 3.84998 17.8142 4.4614 19.1132 5.76044C20.4123 7.05949 21.0237 9.22737 21.0237 12.8368C21.0237 16.4463 20.4123 18.6142 19.1132 19.9132C17.8142 21.2123 15.6463 21.8237 12.0368 21.8237C8.42744 21.8237 6.25956 21.2123 4.96051 19.9132C3.66147 18.6142 3.05005 16.4463 3.05005 12.8368ZM12.0368 2.34998C8.34424 2.34998 5.6437 2.95593 3.89985 4.69978C2.156 6.44363 1.55005 9.14417 1.55005 12.8368C1.55005 16.5295 2.156 19.23 3.89985 20.9739C5.6437 22.7177 8.34424 23.3237 12.0368 23.3237C15.7295 23.3237 18.43 22.7177 20.1739 20.9739C21.9177 19.23 22.5237 16.5295 22.5237 12.8368C22.5237 9.14417 21.9177 6.44363 20.1739 4.69978C18.43 2.95593 15.7295 2.34998 12.0368 2.34998ZM8.45892 12.0868C8.04471 12.0868 7.70892 12.4226 7.70892 12.8368C7.70892 13.251 8.04471 13.5868 8.45892 13.5868H15.6147C16.0289 13.5868 16.3647 13.251 16.3647 12.8368C16.3647 12.4226 16.0289 12.0868 15.6147 12.0868H8.45892Z" fill="#181818"/>
</svg>
